<?xml version="1.0" standalone="no"?>
<!DOCTYPE svg PUBLIC "-//W3C//DTD SVG 20010904//EN"
 "http://www.w3.org/TR/2001/REC-SVG-20010904/DTD/svg10.dtd">
<svg version="1.0" xmlns="http://www.w3.org/2000/svg"
 viewBox="0 0 250 250" preserveAspectRatio="xMidYMid meet">
<g transform="translate(-50,250) scale(0.100000,-0.100000)"
fill="#2E5094" stroke="none">
<path d="M789 1686 c-189 -53 -330 -231 -390 -494 -29 -126 -37 -375 -15 -461
29 -115 80 -161 185 -169 88 -6 147 11 188 55 36 37 49 78 81 243 25 134 57
216 98 258 69 69 112 32 168 -143 58 -179 109 -225 248 -225 126 1 178 38 242
173 18 40 45 98 60 129 26 55 84 118 109 118 29 -1 66 -52 80 -110 4 -14 11
-97 17 -184 11 -163 23 -211 63 -255 58 -63 192 -82 277 -39 86 44 123 141
141 370 28 357 -54 603 -230 692 -104 53 -269 55 -379 4 -63 -29 -158 -127
-207 -212 -71 -124 -128 -166 -184 -135 -26 14 -49 54 -112 194 -43 92 -119
168 -191 190 -61 18 -185 18 -249 1z"/>
</g>
</svg>
