<?xml version="1.0" standalone="no"?>
<!DOCTYPE svg PUBLIC "-//W3C//DTD SVG 20010904//EN"
 "http://www.w3.org/TR/2001/REC-SVG-20010904/DTD/svg10.dtd">
<svg version="1.0" xmlns="http://www.w3.org/2000/svg"
 width="1256.000000pt" height="251.000000pt" viewBox="0 0 1256.000000 251.000000"
 preserveAspectRatio="xMidYMid meet">

<g transform="translate(0.000000,251.000000) scale(0.100000,-0.100000)"
fill="#2E5094" stroke="none">
<path d="M5895 2130 c-131 -20 -205 -86 -205 -186 0 -122 127 -188 360 -187
131 0 205 21 255 73 35 37 45 111 22 157 -37 71 -135 124 -265 143 -75 11 -95
11 -167 0z"/>
<path d="M10190 2129 c-73 -13 -149 -57 -172 -100 -22 -41 -24 -119 -3 -159
45 -87 282 -143 454 -106 128 27 188 85 178 173 -6 53 -26 85 -79 123 -81 59
-256 91 -378 69z"/>
<path d="M3025 1773 c-269 -57 -462 -233 -525 -479 -41 -159 -20 -383 47 -505
39 -73 131 -160 212 -203 322 -169 949 -95 1061 125 32 61 36 118 12 171 -17
38 -27 48 -66 63 -71 27 -199 16 -356 -30 -140 -41 -267 -55 -338 -36 -77 21
-147 120 -110 157 9 9 58 18 143 24 211 17 446 75 544 133 102 61 150 158 137
278 -17 164 -143 266 -380 308 -85 15 -298 12 -381 -6z m251 -264 c94 -24 126
-119 61 -184 -45 -45 -117 -65 -237 -65 -116 0 -140 12 -140 69 0 92 122 187
243 190 16 1 48 -4 73 -10z"/>
<path d="M11420 1783 c-143 -24 -301 -97 -391 -180 -110 -103 -172 -223 -196
-383 -42 -272 57 -515 252 -624 297 -166 869 -125 1049 75 50 55 61 91 54 170
-9 93 -65 124 -212 117 -67 -4 -125 -15 -221 -44 -115 -34 -142 -39 -235 -39
-88 0 -111 3 -140 21 -47 27 -82 80 -78 119 3 29 5 30 68 37 228 24 289 33
407 63 242 62 330 130 353 271 12 75 -5 162 -43 220 -55 83 -184 149 -337 174
-63 9 -278 12 -330 3z m244 -291 c96 -56 59 -175 -66 -216 -59 -19 -224 -22
-262 -4 -61 27 -36 123 49 190 73 57 207 72 279 30z"/>
<path d="M4565 1719 c-301 -59 -500 -249 -580 -554 -21 -80 -31 -343 -16 -413
25 -117 94 -173 224 -180 142 -8 243 32 281 113 10 20 29 112 42 204 28 195
51 280 97 347 38 56 86 84 145 84 138 0 186 -95 227 -445 28 -246 79 -305 264
-305 92 0 139 17 193 71 68 68 90 144 90 309 0 335 -130 568 -389 699 -114 57
-191 73 -368 77 -88 1 -182 -2 -210 -7z"/>
<path d="M6743 1716 c-105 -33 -176 -117 -209 -248 -26 -101 -26 -321 -1 -433
58 -253 225 -426 477 -494 263 -71 621 -33 808 86 200 127 292 329 292 643 0
315 -69 440 -244 440 -106 0 -176 -41 -220 -129 -26 -51 -29 -67 -51 -231 -36
-278 -113 -390 -269 -390 -85 0 -155 41 -192 113 -31 59 -54 184 -65 346 -13
217 -33 263 -126 297 -48 17 -145 17 -200 0z"/>
<path d="M8855 1715 c-291 -66 -481 -248 -557 -535 -25 -95 -37 -365 -19 -437
29 -115 94 -164 228 -171 95 -5 163 9 214 44 59 41 77 85 100 251 43 317 103
437 224 451 70 7 129 -20 161 -74 14 -24 32 -64 39 -87 16 -55 42 -210 51
-307 18 -213 84 -280 271 -280 120 0 191 48 245 166 21 45 23 63 23 219 0 146
-4 181 -23 248 -77 270 -265 447 -537 507 -107 23 -325 26 -420 5z"/>
<path d="M789 1686 c-189 -53 -330 -231 -390 -494 -29 -126 -37 -375 -15 -461
29 -115 80 -161 185 -169 88 -6 147 11 188 55 36 37 49 78 81 243 25 134 57
216 98 258 69 69 112 32 168 -143 58 -179 109 -225 248 -225 126 1 178 38 242
173 18 40 45 98 60 129 26 55 84 118 109 118 29 -1 66 -52 80 -110 4 -14 11
-97 17 -184 11 -163 23 -211 63 -255 58 -63 192 -82 277 -39 86 44 123 141
141 370 28 357 -54 603 -230 692 -104 53 -269 55 -379 4 -63 -29 -158 -127
-207 -212 -71 -124 -128 -166 -184 -135 -26 14 -49 54 -112 194 -43 92 -119
168 -191 190 -61 18 -185 18 -249 1z"/>
<path d="M5880 1571 c-64 -23 -129 -87 -148 -147 -23 -70 -25 -185 -6 -399 32
-377 21 -541 -40 -612 -23 -26 -28 -27 -154 -34 -120 -6 -134 -8 -183 -36 -62
-35 -89 -78 -89 -142 0 -55 27 -100 77 -128 108 -58 328 -66 518 -18 170 43
302 148 375 298 69 143 75 189 73 527 -1 325 -12 461 -44 545 -42 114 -106
157 -239 162 -65 3 -98 -1 -140 -16z"/>
<path d="M10188 1571 c-73 -29 -105 -57 -135 -118 -37 -76 -41 -179 -18 -452
22 -269 18 -476 -11 -541 -32 -70 -40 -74 -184 -81 -110 -5 -135 -10 -177 -31
-65 -35 -86 -65 -90 -135 -5 -76 17 -112 89 -147 107 -52 329 -57 503 -11 280
74 429 281 451 625 8 143 -12 608 -31 688 -38 159 -102 213 -260 219 -71 3
-100 -1 -137 -16z"/>
</g>
</svg>
